<svg xmlns="http://www.w3.org/2000/svg" xmlns:xlink="http://www.w3.org/1999/xlink" width="100" zoomAndPan="magnify" viewBox="0 0 375 374.999991" height="100" preserveAspectRatio="xMidYMid meet" version="1.0"><defs><g/></defs><path fill="#358e9d" d="M 364.535156 187.136719 C 364.457031 224.835938 351.898438 262.214844 329.683594 292.585938 C 308.515625 321.589844 278.734375 343.984375 245.007812 356.148438 C 209.996094 368.796875 171.199219 370.246094 135.382812 360.417969 C 100.691406 350.832031 69.222656 330.773438 45.796875 303.382812 C 22.132812 275.667969 7.164062 241.027344 3.378906 204.777344 C -0.644531 166.027344 9.417969 126.152344 30.101562 93.28125 C 49.179688 62.914062 77.269531 38.582031 110.027344 24.003906 C 144.15625 8.855469 182.792969 4.667969 219.414062 12.078125 C 254.667969 19.167969 287.425781 37.050781 312.621094 62.75 C 337.976562 88.609375 355.28125 121.882812 361.71875 157.570312 C 363.570312 167.71875 364.535156 178.03125 364.535156 188.34375 C 364.535156 191.082031 364.617188 188.421875 364.535156 187.136719 C 364.457031 150.15625 353.992188 114.066406 333.066406 83.453125 C 311.976562 52.679688 281.472656 28.675781 246.539062 15.703125 C 210.320312 2.25 169.914062 0.800781 132.726562 11.675781 C 96.828125 22.148438 64.632812 43.898438 41.371094 73.304688 C 18.03125 102.789062 4.425781 139.203125 2.574219 176.742188 C 0.804688 212.753906 8.289062 248.519531 26.320312 279.859375 C 44.753906 312.003906 73.085938 338.183594 106.648438 353.972656 C 141.742188 370.488281 181.988281 375.160156 219.976562 367.347656 C 256.601562 359.855469 290.40625 340.761719 315.921875 313.371094 C 341.597656 285.902344 358.257812 250.535156 363.085938 213.234375 C 364.132812 204.9375 364.617188 196.640625 364.617188 188.261719 C 364.617188 186.972656 364.535156 184.316406 364.535156 187.136719 Z M 364.535156 187.136719 " fill-opacity="1" fill-rule="nonzero"/><path fill="#358e9d" d="M 233.175781 362.109375 C 197.199219 370.488281 159.207031 367.910156 124.839844 354.296875 C 91.4375 341.003906 62.296875 317.800781 42.015625 288.074219 C 20.363281 256.414062 8.371094 216.859375 10.707031 178.355469 C 12.957031 142.023438 26.480469 106.738281 48.855469 78.058594 C 94.816406 19.25 174.742188 -5.644531 245.894531 16.832031 C 279.78125 27.546875 310.207031 48.25 332.5 75.960938 C 356.246094 105.367188 370.25 142.101562 372.34375 179.804688 C 376.527344 254.5625 328.074219 326.179688 259.417969 353.8125 C 250.886719 357.195312 242.113281 359.933594 233.175781 362.109375 C 232.855469 362.191406 233.417969 366.058594 233.175781 366.136719 C 270.363281 357.195312 304.089844 336.8125 329.039062 307.730469 C 353.429688 279.292969 368.5625 243.367188 371.941406 206.066406 C 375.160156 170.460938 368.800781 134.207031 352.382812 102.386719 C 335.15625 68.953125 307.390625 41.484375 273.90625 24.324219 C 240.261719 7.003906 201.464844 0.71875 164.039062 6.519531 C 126.046875 12.402344 90.390625 30.445312 63.183594 57.757812 C 36.863281 84.261719 19.074219 118.820312 12.878906 155.714844 C 7.003906 190.679688 10.945312 227.574219 24.710938 260.28125 C 39.277344 294.921875 64.792969 324.488281 96.828125 344.226562 C 129.023438 363.960938 167.175781 373.386719 204.84375 370.488281 C 214.421875 369.761719 223.839844 368.234375 233.175781 366.058594 C 233.5 366.058594 232.9375 362.191406 233.175781 362.109375 Z M 233.175781 362.109375 " fill-opacity="1" fill-rule="nonzero"/><path fill="#358e9d" d="M 273.421875 345.59375 C 239.699219 363.722656 200.339844 370.570312 162.507812 365.332031 C 126.449219 360.335938 92.078125 344.628906 64.953125 320.300781 C 36.785156 295.164062 16.742188 261.167969 8.289062 224.351562 C 0.0820312 188.746094 2.816406 150.882812 15.9375 116.804688 C 29.21875 82.328125 52.960938 52.199219 83.46875 31.332031 C 116.066406 9.019531 156.550781 -1.214844 195.832031 1.445312 C 232.132812 3.863281 267.386719 17.15625 296.199219 39.390625 C 326.222656 62.589844 348.519531 95.136719 359.625 131.386719 C 370.332031 166.351562 370.171875 204.214844 359.464844 239.09375 C 348.679688 274.21875 327.269531 305.800781 298.535156 328.679688 C 290.40625 335.203125 281.632812 341.082031 272.457031 346.078125 C 269.960938 347.449219 272.296875 346.238281 273.421875 345.59375 C 306.34375 327.710938 333.46875 300.886719 350.691406 267.453125 C 367.996094 233.777344 374.679688 194.949219 369.367188 157.410156 C 363.890625 118.5 345.703125 81.761719 318.09375 53.808594 C 291.453125 26.742188 256.4375 8.535156 219.09375 1.929688 C 181.585938 -4.675781 142.464844 0.71875 108.097656 17.15625 C 75.175781 32.945312 46.84375 56.871094 27.609375 88.046875 C 7.808594 120.109375 -1.851562 158.054688 0.320312 195.59375 C 2.574219 234.90625 17.789062 273.089844 43.0625 303.300781 C 67.449219 332.382812 100.773438 353.410156 137.476562 362.996094 C 174.339844 372.664062 213.941406 370.488281 249.515625 356.792969 C 257.40625 353.730469 265.050781 350.105469 272.535156 346.078125 C 273.582031 345.59375 276 344.226562 273.421875 345.59375 Z M 273.421875 345.59375 " fill-opacity="1" fill-rule="nonzero"/><path fill="#358e9d" d="M 54.007812 312.648438 C 29.136719 284.53125 13.199219 249.40625 8.773438 212.109375 C 4.507812 175.855469 11.109375 138.636719 27.847656 106.171875 C 45.636719 71.53125 75.175781 41.726562 110.59375 25.289062 C 144.074219 9.742188 182.066406 4.828125 218.449219 10.953125 C 293.0625 23.597656 353.832031 82.972656 368.078125 157.410156 C 374.839844 192.855469 371.054688 230.074219 357.132812 263.34375 C 342.402344 298.710938 316.402344 328.917969 283.804688 349.058594 C 219.171875 388.855469 131.921875 380.074219 74.128906 332.140625 C 66.96875 326.101562 60.285156 319.574219 54.007812 312.648438 C 53.765625 312.40625 50.628906 314.820312 50.386719 314.578125 C 76.304688 343.5 110.753906 363.800781 148.746094 372.019531 C 185.851562 380.074219 225.210938 376.289062 260.140625 361.304688 C 293.382812 346.964844 322.683594 323.84375 343.125 293.875 C 364.617188 262.378906 375.804688 224.273438 374.917969 186.167969 C 374.035156 147.742188 360.996094 110.039062 337.734375 79.425781 C 314.148438 48.332031 280.90625 25.128906 243.398438 14.011719 C 207.179688 3.21875 167.660156 3.941406 131.839844 16.1875 C 97.792969 27.867188 66.726562 49.136719 44.1875 77.25 C 20.363281 106.976562 6.277344 144.035156 4.183594 182.140625 C 2.09375 220.488281 12.152344 258.992188 32.839844 291.296875 C 38.070312 299.515625 44.027344 307.25 50.46875 314.5 C 50.707031 314.820312 53.847656 312.40625 54.007812 312.648438 Z M 54.007812 312.648438 " fill-opacity="1" fill-rule="nonzero"/><g fill="#1e4e56" fill-opacity="1"><g transform="translate(127.875974, 176.998756)"><g><path d="M 39.484375 0 C 37.835938 0 35.96875 0.046875 33.875 0.140625 C 31.78125 0.234375 30.3125 0.300781 29.46875 0.34375 L 29.1875 -3.078125 L 34.3125 -4.484375 L 32.40625 -12.03125 L 30.9375 -16.234375 L 15.546875 -16.234375 L 13.296875 -8.890625 L 12.609375 -4.484375 L 17.5 -3.796875 L 17.15625 0 L 11.140625 0 C 9.410156 0 7.585938 0.046875 5.671875 0.140625 C 3.753906 0.234375 2.421875 0.300781 1.671875 0.34375 L 1.40625 -3.078125 L 5.8125 -4.265625 L 8.8125 -11.21875 L 21.359375 -49.359375 L 25.390625 -50.046875 L 39.8125 -10.421875 L 42.546875 -4.484375 L 46.890625 -3.796875 L 46.546875 0 Z M 22.96875 -39 L 16.8125 -19.75 L 29.53125 -20.03125 Z M 22.96875 -39 "/></g></g></g><g fill="#1e4e56" fill-opacity="1"><g transform="translate(176.169987, 176.998756)"><g><path d="M 13.5625 -28.71875 C 14.9375 -30.945312 16.53125 -32.582031 18.34375 -33.625 C 20.15625 -34.675781 22.320312 -35.203125 24.84375 -35.203125 C 25.914062 -35.203125 26.921875 -35.109375 27.859375 -34.921875 C 28.796875 -34.742188 29.375 -34.609375 29.59375 -34.515625 L 28.921875 -22.96875 L 24.84375 -23.171875 L 24.84375 -26.859375 C 24.84375 -27.222656 24.515625 -28.398438 23.859375 -30.390625 L 23.578125 -30.390625 C 20.460938 -30.335938 18.15625 -29.421875 16.65625 -27.640625 C 15.164062 -25.867188 14.351562 -23.285156 14.21875 -19.890625 L 14.21875 -11.6875 C 14.21875 -10.25 14.285156 -8.765625 14.421875 -7.234375 C 14.554688 -5.710938 14.648438 -4.722656 14.703125 -4.265625 L 21.5625 -3.796875 L 21.0625 0.34375 C 20.488281 0.300781 19.191406 0.234375 17.171875 0.140625 C 15.160156 0.046875 12.976562 0 10.625 0 C 9.414062 0.0390625 8 0.0976562 6.375 0.171875 C 4.75 0.242188 3.582031 0.300781 2.875 0.34375 L 2.53125 -3.140625 L 7.828125 -4.265625 C 7.921875 -4.679688 8.0625 -5.53125 8.25 -6.8125 C 8.445312 -8.101562 8.546875 -9.035156 8.546875 -9.609375 L 8.546875 -24.71875 C 8.546875 -25.28125 8.445312 -26.195312 8.25 -27.46875 C 8.0625 -28.75 7.921875 -29.609375 7.828125 -30.046875 L 2.53125 -31.140625 L 2.875 -34.859375 C 3.4375 -34.816406 4.378906 -34.757812 5.703125 -34.6875 C 7.023438 -34.625 8.222656 -34.59375 9.296875 -34.59375 L 11.828125 -34.59375 L 13.15625 -33.328125 Z M 13.5625 -28.71875 "/></g></g></g><g fill="#1e4e56" fill-opacity="1"><g transform="translate(205.700083, 176.998756)"><g><path d="M 23.03125 -34.859375 C 23.539062 -34.816406 24.425781 -34.757812 25.6875 -34.6875 C 26.945312 -34.625 28.09375 -34.59375 29.125 -34.59375 L 33.1875 -34.59375 L 34.515625 -33.328125 C 34.472656 -32.523438 34.378906 -30.898438 34.234375 -28.453125 C 34.085938 -26.003906 34.015625 -24.0625 34.015625 -22.625 L 34.015625 -11.6875 C 34.015625 -10.25 34.109375 -8.765625 34.296875 -7.234375 C 34.492188 -5.710938 34.640625 -4.722656 34.734375 -4.265625 L 39.546875 -3.796875 L 39.0625 0.34375 C 38.65625 0.300781 37.628906 0.234375 35.984375 0.140625 C 34.347656 0.046875 32.367188 0 30.046875 0 L 29.125 -5.46875 C 26.75 -1.363281 23.132812 0.6875 18.28125 0.6875 C 15.207031 0.6875 12.835938 0.0507812 11.171875 -1.21875 C 9.515625 -2.5 8.394531 -4.273438 7.8125 -6.546875 C 7.226562 -8.816406 6.9375 -11.691406 6.9375 -15.171875 L 6.9375 -24.71875 C 6.9375 -25.332031 6.835938 -26.265625 6.640625 -27.515625 C 6.453125 -28.765625 6.3125 -29.609375 6.21875 -30.046875 L 1.609375 -31.140625 L 1.953125 -34.859375 C 2.398438 -34.816406 3.222656 -34.757812 4.421875 -34.6875 C 5.617188 -34.625 6.707031 -34.59375 7.6875 -34.59375 L 11.765625 -34.59375 L 13.09375 -33.328125 C 13.039062 -32.523438 12.945312 -30.898438 12.8125 -28.453125 C 12.675781 -26.003906 12.609375 -24.0625 12.609375 -22.625 L 12.609375 -12.8125 C 12.609375 -6.800781 14.910156 -3.796875 19.515625 -3.796875 C 22.273438 -3.796875 24.429688 -4.863281 25.984375 -7 C 27.546875 -9.144531 28.328125 -11.710938 28.328125 -14.703125 L 28.328125 -24.71875 C 28.328125 -25.332031 28.234375 -26.265625 28.046875 -27.515625 C 27.867188 -28.765625 27.738281 -29.609375 27.65625 -30.046875 L 22.703125 -31.140625 Z M 23.03125 -34.859375 "/></g></g></g><g fill="#1e4e56" fill-opacity="1"><g transform="translate(51.413888, 246.306879)"><g><path d="M 40.265625 -1.328125 C 37.273438 -0.578125 34.632812 0.00390625 32.34375 0.421875 C 30.0625 0.847656 27.65625 1.0625 25.125 1.0625 C 20.3125 1.0625 16.25 0 12.9375 -2.125 C 9.625 -4.257812 7.128906 -7.265625 5.453125 -11.140625 C 3.773438 -15.015625 2.9375 -19.515625 2.9375 -24.640625 C 2.9375 -29.765625 3.773438 -34.265625 5.453125 -38.140625 C 7.128906 -42.015625 9.625 -45.03125 12.9375 -47.1875 C 16.25 -49.34375 20.3125 -50.421875 25.125 -50.421875 C 27.65625 -50.421875 29.863281 -50.226562 31.75 -49.84375 C 33.644531 -49.46875 36.265625 -48.859375 39.609375 -48.015625 L 38.9375 -37.671875 L 34.796875 -37.9375 L 34.796875 -41.21875 C 34.796875 -41.675781 34.507812 -42.847656 33.9375 -44.734375 C 32.5 -45.191406 30.988281 -45.570312 29.40625 -45.875 C 27.820312 -46.1875 26.394531 -46.34375 25.125 -46.34375 C 20.269531 -46.34375 16.5625 -44.320312 14 -40.28125 C 11.4375 -36.238281 10.15625 -31.050781 10.15625 -24.71875 C 10.15625 -18.351562 11.4375 -13.144531 14 -9.09375 C 16.5625 -5.039062 20.242188 -3.015625 25.046875 -3.015625 C 26.441406 -3.015625 28.003906 -3.15625 29.734375 -3.4375 C 31.460938 -3.71875 33.082031 -4.085938 34.59375 -4.546875 C 35.25 -6.691406 35.566406 -8.003906 35.546875 -8.484375 C 35.585938 -8.753906 35.617188 -9.296875 35.640625 -10.109375 C 35.671875 -10.929688 35.6875 -11.484375 35.6875 -11.765625 L 39.8125 -11.890625 Z M 40.265625 -1.328125 "/></g></g></g><g fill="#1e4e56" fill-opacity="1"><g transform="translate(94.10265, 246.306879)"><g><path d="M 1.75 -53.1875 C 2.3125 -53.132812 3.257812 -53.070312 4.59375 -53 C 5.925781 -52.9375 7.128906 -52.90625 8.203125 -52.90625 L 12.234375 -52.90625 L 13.5625 -51.640625 C 13.425781 -50.253906 13.3125 -48.507812 13.21875 -46.40625 C 13.132812 -44.3125 13.09375 -42.492188 13.09375 -40.953125 L 13.09375 -11.6875 C 13.09375 -10.382812 13.132812 -8.988281 13.21875 -7.5 C 13.3125 -6.007812 13.40625 -4.929688 13.5 -4.265625 L 18.96875 -3.796875 L 18.484375 0.34375 C 18.078125 0.300781 17.050781 0.234375 15.40625 0.140625 C 13.769531 0.046875 11.78125 0 9.4375 0 C 8.226562 0.0390625 6.804688 0.0976562 5.171875 0.171875 C 3.546875 0.242188 2.378906 0.300781 1.671875 0.34375 L 1.328125 -3.140625 L 6.734375 -4.265625 C 6.867188 -4.890625 7.015625 -5.78125 7.171875 -6.9375 C 7.335938 -8.101562 7.421875 -8.992188 7.421875 -9.609375 L 7.421875 -43.0625 C 7.421875 -43.675781 7.328125 -44.609375 7.140625 -45.859375 C 6.960938 -47.117188 6.828125 -47.953125 6.734375 -48.359375 L 1.40625 -49.5 Z M 1.75 -53.1875 "/></g></g></g><g fill="#1e4e56" fill-opacity="1"><g transform="translate(114.609661, 246.306879)"><g><path d="M 18.90625 -3.859375 C 20.675781 -3.859375 22.332031 -4.066406 23.875 -4.484375 C 25.414062 -4.910156 26.707031 -5.378906 27.75 -5.890625 C 28.800781 -6.410156 29.328125 -6.691406 29.328125 -6.734375 L 31.28125 -3.484375 C 31.28125 -3.390625 30.71875 -2.984375 29.59375 -2.265625 C 28.476562 -1.554688 27 -0.882812 25.15625 -0.25 C 23.3125 0.375 21.226562 0.6875 18.90625 0.6875 C 13.726562 0.6875 9.75 -0.929688 6.96875 -4.171875 C 4.1875 -7.410156 2.796875 -11.738281 2.796875 -17.15625 C 2.796875 -22.625 4.085938 -27 6.671875 -30.28125 C 9.265625 -33.5625 13.054688 -35.203125 18.046875 -35.203125 C 27.003906 -35.203125 31.492188 -29.769531 31.515625 -18.90625 L 30.3125 -16.578125 L 9.359375 -16.578125 C 9.503906 -13.066406 10.394531 -10.066406 12.03125 -7.578125 C 13.675781 -5.097656 15.96875 -3.859375 18.90625 -3.859375 Z M 17.78125 -31.578125 C 15.113281 -31.578125 13.128906 -30.5 11.828125 -28.34375 C 10.523438 -26.195312 9.726562 -23.472656 9.4375 -20.171875 L 24.984375 -21.296875 L 25.046875 -22.703125 C 25.046875 -25.316406 24.429688 -27.445312 23.203125 -29.09375 C 21.972656 -30.75 20.164062 -31.578125 17.78125 -31.578125 Z M 17.78125 -31.578125 "/></g></g></g><g fill="#1e4e56" fill-opacity="1"><g transform="translate(148.03609, 246.306879)"><g><path d="M 24 -5.53125 C 23.132812 -3.757812 21.632812 -2.28125 19.5 -1.09375 C 17.363281 0.09375 15.160156 0.6875 12.890625 0.6875 C 9.765625 0.6875 7.289062 -0.113281 5.46875 -1.71875 C 3.644531 -3.332031 2.734375 -5.515625 2.734375 -8.265625 C 2.734375 -13.441406 5.851562 -16.539062 12.09375 -17.5625 L 23.3125 -19.453125 L 23.3125 -21.765625 C 23.3125 -28.222656 21.113281 -31.453125 16.71875 -31.453125 C 15.550781 -31.453125 14.375 -31.316406 13.1875 -31.046875 C 12.007812 -30.785156 10.972656 -30.453125 10.078125 -30.046875 L 9.609375 -27.109375 L 9.609375 -24.234375 L 5.53125 -24 L 4.75 -33.53125 C 8.945312 -34.644531 13.175781 -35.203125 17.4375 -35.203125 C 21.582031 -35.203125 24.539062 -34.066406 26.3125 -31.796875 C 28.09375 -29.535156 28.984375 -25.726562 28.984375 -20.375 L 28.984375 -11.6875 C 28.984375 -10.25 29.070312 -8.765625 29.25 -7.234375 C 29.4375 -5.710938 29.578125 -4.722656 29.671875 -4.265625 L 34.515625 -3.796875 L 34.015625 0.34375 C 33.597656 0.300781 32.570312 0.234375 30.9375 0.140625 C 29.3125 0.046875 27.328125 0 24.984375 0 Z M 13.296875 -14.015625 C 11.910156 -13.765625 10.828125 -13.222656 10.046875 -12.390625 C 9.273438 -11.554688 8.890625 -10.523438 8.890625 -9.296875 C 8.890625 -7.515625 9.332031 -6.148438 10.21875 -5.203125 C 11.101562 -4.265625 12.367188 -3.796875 14.015625 -3.796875 C 16.335938 -3.796875 18.375 -4.539062 20.125 -6.03125 C 21.882812 -7.519531 22.945312 -9.40625 23.3125 -11.6875 L 23.3125 -15.890625 Z M 13.296875 -14.015625 "/></g></g></g><g fill="#1e4e56" fill-opacity="1"><g transform="translate(183.376507, 246.306879)"><g><path d="M 40.609375 0.34375 C 40.191406 0.300781 39.160156 0.234375 37.515625 0.140625 C 35.878906 0.046875 33.898438 0 31.578125 0 C 30.460938 0.0390625 29.140625 0.0976562 27.609375 0.171875 C 26.085938 0.242188 25.03125 0.300781 24.4375 0.34375 L 24.09375 -3.140625 L 28.78125 -4.265625 C 29.238281 -6.316406 29.46875 -8.097656 29.46875 -9.609375 L 29.46875 -19.3125 C 29.46875 -27.0625 27.0625 -30.9375 22.25 -30.9375 C 19.539062 -30.9375 17.378906 -29.851562 15.765625 -27.6875 C 14.160156 -25.519531 13.335938 -22.679688 13.296875 -19.171875 L 13.296875 -11.6875 C 13.296875 -10.25 13.363281 -8.765625 13.5 -7.234375 C 13.632812 -5.710938 13.726562 -4.722656 13.78125 -4.265625 L 19.25 -3.796875 L 18.765625 0.34375 C 18.359375 0.300781 17.332031 0.234375 15.6875 0.140625 C 14.050781 0.046875 12.066406 0 9.734375 0 C 8.535156 0.0390625 7.113281 0.0976562 5.46875 0.171875 C 3.832031 0.242188 2.660156 0.300781 1.953125 0.34375 L 1.609375 -3.140625 L 6.9375 -4.265625 C 6.976562 -4.628906 7.078125 -5.300781 7.234375 -6.28125 C 7.398438 -7.269531 7.53125 -8.253906 7.625 -9.234375 L 7.625 -24.71875 C 7.625 -25.332031 7.53125 -26.265625 7.34375 -27.515625 C 7.164062 -28.765625 7.03125 -29.609375 6.9375 -30.046875 L 1.609375 -31.140625 L 1.953125 -34.859375 C 2.515625 -34.816406 3.460938 -34.757812 4.796875 -34.6875 C 6.128906 -34.625 7.332031 -34.59375 8.40625 -34.59375 L 10.90625 -34.59375 L 12.234375 -33.328125 L 12.6875 -28.84375 C 13.613281 -30.625 14.992188 -32.128906 16.828125 -33.359375 C 18.660156 -34.585938 20.820312 -35.203125 23.3125 -35.203125 C 27.84375 -35.203125 30.945312 -33.882812 32.625 -31.25 C 34.300781 -28.625 35.140625 -24.644531 35.140625 -19.3125 L 35.140625 -11.6875 C 35.140625 -10.25 35.207031 -8.765625 35.34375 -7.234375 C 35.476562 -5.710938 35.566406 -4.722656 35.609375 -4.265625 L 41.078125 -3.796875 Z M 40.609375 0.34375 "/></g></g></g><g fill="#1e4e56" fill-opacity="1"><g transform="translate(225.279166, 246.306879)"><g><path d="M 11.078125 -50.421875 C 12.367188 -50.421875 13.375 -50.019531 14.09375 -49.21875 C 14.8125 -48.414062 15.171875 -47.285156 15.171875 -45.828125 C 15.171875 -44.484375 14.8125 -43.398438 14.09375 -42.578125 C 13.375 -41.765625 12.367188 -41.359375 11.078125 -41.359375 C 9.773438 -41.359375 8.757812 -41.765625 8.03125 -42.578125 C 7.300781 -43.398438 6.9375 -44.484375 6.9375 -45.828125 C 6.9375 -47.179688 7.296875 -48.285156 8.015625 -49.140625 C 8.734375 -49.992188 9.753906 -50.421875 11.078125 -50.421875 Z M 19.65625 0.34375 C 19.238281 0.300781 18.21875 0.234375 16.59375 0.140625 C 14.96875 0.046875 12.976562 0 10.625 0 C 9.414062 0.0390625 8 0.0976562 6.375 0.171875 C 4.75 0.242188 3.582031 0.300781 2.875 0.34375 L 2.53125 -3.140625 L 7.828125 -4.265625 C 7.921875 -4.679688 8.0625 -5.53125 8.25 -6.8125 C 8.445312 -8.101562 8.546875 -9.035156 8.546875 -9.609375 L 8.546875 -24.71875 C 8.546875 -25.28125 8.445312 -26.195312 8.25 -27.46875 C 8.0625 -28.75 7.921875 -29.609375 7.828125 -30.046875 L 2.53125 -31.140625 L 2.875 -34.859375 C 3.4375 -34.816406 4.378906 -34.757812 5.703125 -34.6875 C 7.023438 -34.625 8.222656 -34.59375 9.296875 -34.59375 L 13.359375 -34.59375 L 14.703125 -33.328125 C 14.648438 -32.523438 14.554688 -30.898438 14.421875 -28.453125 C 14.285156 -26.003906 14.21875 -24.0625 14.21875 -22.625 L 14.21875 -11.6875 C 14.21875 -10.25 14.285156 -8.765625 14.421875 -7.234375 C 14.554688 -5.710938 14.648438 -4.722656 14.703125 -4.265625 L 20.171875 -3.796875 Z M 19.65625 0.34375 "/></g></g></g><g fill="#1e4e56" fill-opacity="1"><g transform="translate(246.333031, 246.306879)"><g><path d="M 40.609375 0.34375 C 40.191406 0.300781 39.160156 0.234375 37.515625 0.140625 C 35.878906 0.046875 33.898438 0 31.578125 0 C 30.460938 0.0390625 29.140625 0.0976562 27.609375 0.171875 C 26.085938 0.242188 25.03125 0.300781 24.4375 0.34375 L 24.09375 -3.140625 L 28.78125 -4.265625 C 29.238281 -6.316406 29.46875 -8.097656 29.46875 -9.609375 L 29.46875 -19.3125 C 29.46875 -27.0625 27.0625 -30.9375 22.25 -30.9375 C 19.539062 -30.9375 17.378906 -29.851562 15.765625 -27.6875 C 14.160156 -25.519531 13.335938 -22.679688 13.296875 -19.171875 L 13.296875 -11.6875 C 13.296875 -10.25 13.363281 -8.765625 13.5 -7.234375 C 13.632812 -5.710938 13.726562 -4.722656 13.78125 -4.265625 L 19.25 -3.796875 L 18.765625 0.34375 C 18.359375 0.300781 17.332031 0.234375 15.6875 0.140625 C 14.050781 0.046875 12.066406 0 9.734375 0 C 8.535156 0.0390625 7.113281 0.0976562 5.46875 0.171875 C 3.832031 0.242188 2.660156 0.300781 1.953125 0.34375 L 1.609375 -3.140625 L 6.9375 -4.265625 C 6.976562 -4.628906 7.078125 -5.300781 7.234375 -6.28125 C 7.398438 -7.269531 7.53125 -8.253906 7.625 -9.234375 L 7.625 -24.71875 C 7.625 -25.332031 7.53125 -26.265625 7.34375 -27.515625 C 7.164062 -28.765625 7.03125 -29.609375 6.9375 -30.046875 L 1.609375 -31.140625 L 1.953125 -34.859375 C 2.515625 -34.816406 3.460938 -34.757812 4.796875 -34.6875 C 6.128906 -34.625 7.332031 -34.59375 8.40625 -34.59375 L 10.90625 -34.59375 L 12.234375 -33.328125 L 12.6875 -28.84375 C 13.613281 -30.625 14.992188 -32.128906 16.828125 -33.359375 C 18.660156 -34.585938 20.820312 -35.203125 23.3125 -35.203125 C 27.84375 -35.203125 30.945312 -33.882812 32.625 -31.25 C 34.300781 -28.625 35.140625 -24.644531 35.140625 -19.3125 L 35.140625 -11.6875 C 35.140625 -10.25 35.207031 -8.765625 35.34375 -7.234375 C 35.476562 -5.710938 35.566406 -4.722656 35.609375 -4.265625 L 41.078125 -3.796875 Z M 40.609375 0.34375 "/></g></g></g><g fill="#1e4e56" fill-opacity="1"><g transform="translate(288.235691, 246.306879)"><g><path d="M 27.578125 -31.203125 C 29.722656 -28.972656 30.796875 -26.082031 30.796875 -22.53125 C 30.796875 -18.695312 29.554688 -15.628906 27.078125 -13.328125 C 24.609375 -11.023438 21.347656 -9.875 17.296875 -9.875 C 15.609375 -9.875 14.023438 -10.082031 12.546875 -10.5 C 11.296875 -9.0625 10.65625 -8.078125 10.625 -7.546875 C 10.625 -6.847656 11.054688 -6.347656 11.921875 -6.046875 C 12.796875 -5.753906 14.566406 -5.445312 17.234375 -5.125 L 20.296875 -4.6875 C 22.347656 -4.457031 24.363281 -4.195312 26.34375 -3.90625 C 28.332031 -3.625 29.796875 -3.328125 30.734375 -3.015625 C 31.753906 -2.691406 32.53125 -2.015625 33.0625 -0.984375 C 33.601562 0.0351562 33.875 1.390625 33.875 3.078125 C 33.875 5.492188 33.082031 7.71875 31.5 9.75 C 29.914062 11.789062 27.753906 13.414062 25.015625 14.625 C 22.285156 15.832031 19.3125 16.4375 16.09375 16.4375 C 11.5625 16.4375 8.117188 15.578125 5.765625 13.859375 C 3.421875 12.140625 2.25 9.617188 2.25 6.296875 C 2.25 5.671875 2.84375 4.707031 4.03125 3.40625 C 5.21875 2.113281 6.742188 0.71875 8.609375 -0.78125 C 7.359375 -1.3125 6.445312 -1.976562 5.875 -2.78125 C 5.3125 -3.59375 5.03125 -4.625 5.03125 -5.875 C 5.03125 -6.8125 6.710938 -8.679688 10.078125 -11.484375 C 8.078125 -12.554688 6.53125 -14.046875 5.4375 -15.953125 C 4.34375 -17.867188 3.796875 -20.0625 3.796875 -22.53125 C 3.796875 -26.351562 5.03125 -29.421875 7.5 -31.734375 C 9.976562 -34.046875 13.242188 -35.203125 17.296875 -35.203125 C 19.960938 -35.203125 22.410156 -34.644531 24.640625 -33.53125 L 33.1875 -34.859375 L 33.1875 -30.796875 Z M 17.296875 -31.65625 C 12.347656 -31.625 9.875 -28.582031 9.875 -22.53125 C 9.875 -16.46875 12.347656 -13.4375 17.296875 -13.4375 C 22.242188 -13.4375 24.71875 -16.46875 24.71875 -22.53125 C 24.71875 -28.582031 22.242188 -31.625 17.296875 -31.65625 Z M 11.28125 0.0625 C 10.050781 1.570312 9.238281 2.6875 8.84375 3.40625 C 8.457031 4.125 8.265625 4.832031 8.265625 5.53125 C 8.265625 7.90625 9.054688 9.65625 10.640625 10.78125 C 12.222656 11.90625 14.691406 12.46875 18.046875 12.46875 C 20.941406 12.46875 23.3125 11.800781 25.15625 10.46875 C 27 9.144531 27.921875 7.410156 27.921875 5.265625 C 27.921875 4.191406 27.722656 3.429688 27.328125 2.984375 C 26.929688 2.546875 26.21875 2.242188 25.1875 2.078125 L 16.09375 0.921875 C 14.226562 0.742188 12.625 0.457031 11.28125 0.0625 Z M 11.28125 0.0625 "/></g></g></g></svg>
